<svg width="77" height="77" viewBox="0 0 77 77" fill="none" xmlns="http://www.w3.org/2000/svg">
<rect width="77" height="77" rx="38.5" fill="#FFEDB8"/>
<path d="M22.6667 55.4583C22.2153 55.4583 21.842 55.3108 21.5469 55.0156C21.2518 54.7205 21.1042 54.3472 21.1042 53.8958V30.5625C21.1042 30.1111 21.2518 29.7379 21.5469 29.4427C21.842 29.1476 22.2153 29 22.6667 29H29.4375V22.2292C29.4375 21.7778 29.5851 21.4045 29.8802 21.1094C30.1754 20.8142 30.5486 20.6667 31 20.6667H46C46.4514 20.6667 46.8247 20.8142 47.1198 21.1094C47.415 21.4045 47.5625 21.7778 47.5625 22.2292V37.3333H54.3334C54.7847 37.3333 55.158 37.4809 55.4531 37.776C55.7483 38.0712 55.8959 38.4445 55.8959 38.8958V53.8958C55.8959 54.3472 55.7483 54.7205 55.4531 55.0156C55.158 55.3108 54.7847 55.4583 54.3334 55.4583H41.9375V47.125H35.0625V55.4583H22.6667ZM22.5625 54H29.4375V47.125H22.5625V54ZM22.5625 45.6667H29.4375V38.7917H22.5625V45.6667ZM22.5625 37.3333H29.4375V30.4583H22.5625V37.3333ZM30.8959 45.6667H37.7709V38.7917H30.8959V45.6667ZM30.8959 37.3333H37.7709V30.4583H30.8959V37.3333ZM30.8959 29H37.7709V22.125H30.8959V29ZM39.2292 45.6667H46.1042V38.7917H39.2292V45.6667ZM39.2292 37.3333H46.1042V30.4583H39.2292V37.3333ZM39.2292 29H46.1042V22.125H39.2292V29ZM47.5625 54H54.4375V47.125H47.5625V54ZM47.5625 45.6667H54.4375V38.7917H47.5625V45.6667Z" fill="#132139"/>
</svg>
